<svg width="734" height="640" viewBox="0 0 734 640" fill="none" xmlns="http://www.w3.org/2000/svg" xmlns:xlink="http://www.w3.org/1999/xlink">
<rect width="734" height="640" fill="url(#pattern0)"/>
<defs>
<pattern id="pattern0" patternContentUnits="objectBoundingBox" width="1" height="1">
<use xlink:href="#image0" transform="translate(-0.00408719) scale(0.0013624 0.0015625)"/>
</pattern>
</defs>
<path d="M222 530L442.8 538L512 524.3V546L443.5 565.7L222 554.7V530Z" fill="#3595F6" fill-opacity="0.75"/>
<path d="M223 530V505L443.3 508.3L513 505V525L443.7 538L223 530Z" fill="#3595F6" fill-opacity="0.75"/>
<path d="M223 504V479H444H513V502L445 509L223 504Z" fill="#3595F6" fill-opacity="0.75"/>
<path d="M223 479V454L444.3 450.3L512 457V479H444" fill="#3595F6" fill-opacity="0.75"/>
<path d="M223 454V428L444.5 424.7L513 435.7V457L444 450.3L223 454Z" fill="#3595F6" fill-opacity="0.75"/>
<path d="M222 428V404.3L443 392L514 415V436.3L443 424L222 428Z" fill="#3595F6" fill-opacity="0.75"/>
<path d="M222 405V380L444.2 363.7L514 392.3V413L443.7 391.3L222 405Z" fill="#3595F6" fill-opacity="0.75"/>
<path d="M222 380V355L444.5 334.7L514 371.3V392L442 363.3L222 380Z" fill="#3595F6" fill-opacity="0.75"/>
<path d="M222 355V331L445 306.3L514 350.3V372L444.7 334L222 355Z" fill="#3595F6" fill-opacity="0.75"/>
<path d="M222 329V305L444.5 276.3L514 327.3V348L443.7 305.7L222 329Z" fill="#3595F6" fill-opacity="0.75"/>
<path d="M221 304V280L443.3 247L514 306.3V326L444 275.3L221 304Z" fill="#3595F6" fill-opacity="0.75"/>
<path d="M222 279V255L443.2 220L513 284V305L444.3 246.7L222 279Z" fill="#3595F6" fill-opacity="0.75"/>
<path d="M222 255V230L444.3 192L513 262.3V283L444 219L222 255Z" fill="#3595F6" fill-opacity="0.75"/>
<path d="M222 231V206L442.8 162.3L513 241.3V264L444 190.7L222 231Z" fill="#3595F6" fill-opacity="0.75"/>
<path d="M223 206V181L443 133L513 218V241L442.3 161.7L223 206Z" fill="#3595F6" fill-opacity="0.75"/>
<path d="M222 181V156L441.8 104L513 196.3V219L443.3 132.7L222 181Z" fill="#3595F6" fill-opacity="0.75"/>
<path d="M222 155V129L444 72.3L513 174V195L443.7 103.3L222 155Z" fill="#3595F6" fill-opacity="0.75"/>

</svg>
